<?xml version="1.0" encoding="utf-8"?>
<!-- Generator: Adobe Illustrator 17.1.0, SVG Export Plug-In . SVG Version: 6.00 Build 0)  -->
<!DOCTYPE svg PUBLIC "-//W3C//DTD SVG 1.1//EN" "http://www.w3.org/Graphics/SVG/1.1/DTD/svg11.dtd">
<svg version="1.1" id="Layer_1" xmlns="http://www.w3.org/2000/svg" xmlns:xlink="http://www.w3.org/1999/xlink" x="0px" y="0px"
	 width="117px" height="116.8px" viewBox="0 0 117 116.8" enable-background="new 0 0 117 116.8" xml:space="preserve">
<g>
	<path fill="#ed872d" d="M58.5-0.2C26.2-0.2-0.1,26.1-0.1,58.4c0,32.3,26.2,58.6,58.6,58.6c32.3,0,58.6-26.2,58.6-58.6
		C117.1,26.1,90.9-0.2,58.5-0.2z M58.5,111.2c-29.2,0-52.8-23.6-52.8-52.8c0-29.2,23.6-52.8,52.8-52.8c22.9,0,42.3,14.5,49.7,34.9
		c-9.7,1.5-22.4,3.4-25.1,1.7C75,39,67.8,26.6,60.9,22.1c0,0,2.4-4.6,10-4.7c1.3-0.4,0.3-1.5-0.3-1.2c-0.5,0-5.9-0.9-10.1,2.4
		c-0.4-0.2-0.2-0.2-0.2-0.5c0-0.3,3-2.7,5.9-3.1c1.5-0.4,0-1.1-0.3-1c-0.3,0.1-6.2-0.1-10.6,5.9c-0.6,0.5-0.9-0.1-1.1-0.3
		c-0.2-0.2-1.6-1.8-1.5-2.4c-0.1-0.8-0.9,1.1-0.6,2.3c-0.4,0.5-1.9-1.7-1.9-2.4c0-0.7-0.5-0.5-0.5,0.1c-0.3,1.4-0.4,5.6,1.2,7.1
		c0.6,0.5-2.5,1.5-3.4,5c-0.3,1.6-3.7,4.1-4.5,4.5c-0.8,0.4-5,4.4-1.1,7.3c1.2,0.9,3.9-0.6,4.1-0.6c1.3-0.3,1.5-0.1,2.7-0.1
		c3.8-0.3,5.6-1.1,6.8-1.5c1.2-0.3,2.3,0.5,2.8,1c3.7,3.2,10.4,24.8,13,28.2c1.1,1.6,3.9,19.1,3.1,21.9c-0.7,2.8-2.1,4.7-2.1,5.2
		c-0.1,0.6,0.1,0.5,0.3,0.7c0.2,0.2,5.9,0,5.9,0s0.1-5,0.3-5.3c0.2-0.3,1,0.2,1.5,0c-0.7-5.5-1.5-22-0.1-22.3
		c1.4-0.3,12.2,4.8,29-2.1c0,1.1,0.3,2.5,0.8,3.8C104.6,93.7,83.6,111.2,58.5,111.2z"/>
	<path fill="#ed872d" d="M108.2,40.5c-9.7,1.5-22.4,3.4-25.1,1.7C75,39,67.8,26.6,60.9,22.1c0,0,2.4-4.6,10-4.7
		c1.3-0.4,0.3-1.5-0.3-1.2c-0.5,0-5.9-0.9-10.1,2.4c-0.4-0.2-0.2-0.2-0.2-0.5c0-0.3,3-2.7,5.9-3.1c1.5-0.4,0-1.1-0.3-1
		c-0.3,0.1-6.2-0.1-10.6,5.9c-0.6,0.5-0.9-0.1-1.1-0.3c-0.2-0.2-1.6-1.8-1.5-2.4c-0.1-0.8-0.9,1.1-0.6,2.3c-0.4,0.5-1.9-1.7-1.9-2.4
		c0-0.7-0.5-0.5-0.5,0.1c-0.3,1.4-0.4,5.6,1.2,7.1c0.6,0.5-2.5,1.5-3.4,5c-0.3,1.6-3.7,4.1-4.5,4.5c-0.8,0.4-5,4.4-1.1,7.3
		c1.2,0.9,3.9-0.6,4.1-0.6c1.3-0.3,1.5-0.1,2.7-0.1c3.8-0.3,5.6-1.1,6.8-1.5c1.2-0.3,2.3,0.5,2.8,1c3.7,3.2,10.4,24.8,13,28.2
		c1.1,1.6,3.9,19.1,3.1,21.9c-0.7,2.8-2.1,4.7-2.1,5.2c-0.1,0.6,0.1,0.5,0.3,0.7c0.2,0.2,5.9,0,5.9,0s0.1-5,0.3-5.3
		c0.2-0.3,1,0.2,1.5,0c-0.7-5.5-1.5-22-0.1-22.3c1.4-0.3,12.2,4.8,29-2.1c0,1.1,0.3,2.5,0.8,3.8c0.9-3.8,1.3-7.7,1.3-11.8
		C111.3,52.1,110.2,46.1,108.2,40.5z"/>
	<g>
		<path fill="#ed872d" d="M52.6,76.4c1.5-1.3,2.9-2.4,4.3-3.5c1.1,1.1,2.2,2.2,3.2,3.3c0.8,0.8,1.6,1.6,2.4,2.4
			c2.7,2.6,3.5,5.7,2.6,9.4c-0.2,0.7-0.4,1.4-0.7,2.1c-0.1,0.2-0.2,0.3-0.3,0.4c-2.3,1-4.7,1.5-7.3,0.8c-1.2-0.3-2.3-0.8-3.2-1.6
			c-2.3-2.2-4.5-4.4-6.8-6.7c1.2-1.4,2.3-2.8,3.5-4.3c-3.2-3.2-6.5-6.4-9.8-9.6c0.9-0.8,1.6-1.6,2.4-2.4
			C46.2,69.9,49.4,73.2,52.6,76.4z"/>
		<path fill="#ed872d" d="M32.2,77.8c-0.2,0.2-0.3,0.4-0.4,0.5c-3.1,3.1-6.2,6.2-9.4,9.4c-0.1,0.1-0.2,0.3-0.3,0.3
			c-0.2,0-0.4,0-0.6,0c-0.1-0.1-0.1-0.4,0-0.5c0-0.1,0.2-0.2,0.3-0.3c3.1-3.1,6.2-6.2,9.3-9.3c0.1-0.1,0.3-0.2,0.5-0.3
			c0-0.1-0.1-0.2-0.1-0.3c-0.3-0.1-0.6-0.3-0.9-0.4c-0.6-0.1-1-0.5-1.2-1.2c-0.1-0.3-0.3-0.6-0.4-0.9c-0.1,0-0.2-0.1-0.3-0.1
			c-0.1,0.2-0.2,0.4-0.3,0.5c-3.1,3.1-6.2,6.2-9.3,9.3c-0.1,0.1-0.2,0.2-0.3,0.3c-0.2,0.1-0.4,0-0.7,0.1c0-0.2,0-0.4,0.1-0.6
			c0-0.1,0.2-0.2,0.2-0.3c3.1-3.1,6.2-6.2,9.4-9.4c0.1-0.1,0.3-0.2,0.4-0.3c-0.6-0.6-1-1.2-1.6-1.7c-0.9-0.8-1.8-0.7-2.7,0.2
			c-2.8,2.8-5.6,5.6-8.4,8.4c-0.1,0.1-0.2,0.3-0.3,0.3c-0.2,0-0.4,0.1-0.5,0c-0.1-0.1-0.1-0.4,0-0.5c0-0.1,0.2-0.2,0.3-0.3
			c2.8-2.8,5.5-5.5,8.3-8.3c1.3-1.3,2.8-1.3,4.2,0c0.8,0.7,1.5,1.5,2.3,2.4c0.5-0.5,0.9-1,1.4-1.4c0.3-0.2,0.6-0.4,0.9-0.5
			c0.2-0.1,0.4-0.2,0.6-0.4c7.7-7.7,15.4-15.4,23.1-23.1c0.1-0.1,0.3-0.3,0.4-0.4c0.4-0.3,0.8-0.3,1.2,0c0.3,0.3,0.3,0.8,0,1.2
			c-0.1,0.1-0.3,0.3-0.4,0.4C49.6,58,41.9,65.7,34.2,73.4c-0.2,0.2-0.3,0.5-0.5,0.8c-0.1,0.2-0.3,0.5-0.4,0.7
			c-0.5,0.5-0.9,0.9-1.5,1.4c0.8,0.8,1.6,1.5,2.3,2.2c0.3,0.4,0.7,0.8,0.9,1.3c0.4,1,0.2,1.9-0.5,2.7c-2.9,2.9-5.8,5.8-8.7,8.8
			c-0.2,0.2-0.5,0.4-0.7,0.1c-0.3-0.3-0.1-0.5,0.1-0.7c2.8-2.8,5.6-5.6,8.4-8.4c1.1-1.1,0.8-2.2,0-3.1
			C33.1,78.7,32.7,78.3,32.2,77.8z"/>
		<path fill="#ed872d" d="M39.6,63.3c-0.8,0.8-1.5,1.5-2.2,2.3c-1.1-1.1-2.2-2.2-3.2-3.2c-1.4-1.4-2.8-2.8-4.2-4.2
			c-0.1-0.1-0.4-0.3-0.6-0.2c-2.2,0.8-4,0.2-5.8-1.2c-0.2-0.2-0.5-0.4-0.7-0.6c-0.5-0.4-0.5-0.8-0.2-1.3c0.2-0.4,0.4-0.7,0.6-1
			c1.3-1.7,2.8-3.2,4.5-4.5c0.3-0.2,0.7-0.5,1-0.6c0.6-0.3,0.9-0.3,1.3,0.2c1.1,1.2,2,2.5,2.1,4.1c0,0.7-0.1,1.5-0.3,2.2
			c-0.1,0.3,0,0.5,0.2,0.7c2.4,2.4,4.7,4.7,7.1,7.1C39.4,63.1,39.5,63.3,39.6,63.3z M24.7,55.6c1,1,2.2,1.5,3.7,1
			c1.4-0.5,2.2-1.5,2.4-3c0.1-1.2-0.4-2.2-1.2-2.9C28,52.4,26.4,54,24.7,55.6z"/>
	</g>
</g>
</svg>
