<?xml version="1.0" encoding="utf-8"?>
<!-- Generator: Adobe Illustrator 17.1.0, SVG Export Plug-In . SVG Version: 6.00 Build 0)  -->
<!DOCTYPE svg PUBLIC "-//W3C//DTD SVG 1.1//EN" "http://www.w3.org/Graphics/SVG/1.1/DTD/svg11.dtd">
<svg version="1.1" id="Layer_1" xmlns="http://www.w3.org/2000/svg" xmlns:xlink="http://www.w3.org/1999/xlink" x="0px" y="0px"
	 width="117px" height="116.8px" viewBox="0 0 117 116.8" enable-background="new 0 0 117 116.8" xml:space="preserve">
<path fill="#ed872d" d="M58.7-0.3C26.3-0.6-0.1,25.4-0.4,57.7s25.6,58.7,57.9,59c32.3,0.3,58.7-25.6,59-57.9
	C116.9,26.5,91,0,58.7-0.3z M57.6,109.9C29.1,109.6,6.2,86.3,6.4,57.7C6.7,29.2,30,6.3,58.6,6.5c28.5,0.3,51.5,23.6,51.2,52.2
	C109.5,87.2,86.2,110.2,57.6,109.9z"/>
<g>
	<path fill="#ed872d" d="M52.4,83.9c-1.7,0.9-4.1,1.9-7,3c5.1,0.9,9.8,1.2,10.4-0.9C55.5,85.5,54.2,84.8,52.4,83.9z"/>
	<path fill="#ed872d" d="M91.9,40.5c-0.8-3.8-3.2-5.4-6.9-5.1C85.6,39.4,88.7,41.4,91.9,40.5z"/>
	<path fill="#ed872d" d="M65.5,77.3c-1.9,0.9-3.3,1.6-3.6,2.1c0.6,2.2,4.9,1.8,10.2,1c-1.4-0.9-2.7-1.4-3.8-1.9
		C67.4,78,66.5,77.6,65.5,77.3z"/>
	<circle fill="#ed872d" cx="78" cy="33.7" r="7"/>
	<path fill="#ed872d" d="M98.3,76c0.1-0.9,0.1-2.5-1-3.3c0,0,0,0,0,0c0,0,0,0,0,0c-0.3-0.2-0.7-0.4-1.2-0.5c-1.5-0.6-3.9-1.6-5.7-2
		c0-0.2,0-0.4,0-0.7c4.9-1.3,7.4-4.4,7.2-8.1c-0.6-12.1-5.2-15.2-8.9-17.7C84.9,41.1,77,40.4,71,44.4c-2.3,1.5-3.9,3.7-7.8,6.4
		c-2.4,1.6-9.3-0.1-11.8-0.3c-0.2,0-0.3,0-0.5,0c-0.1-0.1-0.2-0.1-0.3-0.2c-6.3-3.6-17.9-4.2-20.8-0.7C26.4,54,25.5,59.9,25,66.6
		c-0.3,3.6,1.8,5.9,6.4,7.2c0,0.2,0,0.4-0.1,0.6c-1.8,0.2-4.2,1-5.7,1.4c-0.5,0-0.9,0.2-1.2,0.4c0,0,0,0,0,0c0,0,0,0,0,0
		c-1.5,0.9-1.3,3.2-1.2,3.8c0.5,2,3.7,3.1,9.6,4.4c2.2-1.3,4.6-2.5,6.9-3.7c0.2,0.1,0.4,0.1,0.7,0.2c-7.4,3.8-15.3,8.6-16,10
		c1.1,2.4,7.8,0.3,13.8-1.9c11.2-4.1,17.3-6.2,17.5-9.1c0-0.3-0.1-1.1-0.4-1.9c0,0,0,0,0,0c0-0.1-0.1-0.2-0.2-0.3
		c-0.3-0.7-0.9-1.2-1.7-1.4c-1.7-1-4-2.1-4.2-2.5c-0.7-4.4,0.4-8.6,1.6-12.9c1,5.2,3.9,10.7,4.9,16.3c0,0.3,0.1,0.6,0.1,0.8
		c0.3,0.8,0.4,1.6,0.3,2c0,0.1,0,0.1,0,0.2c0.4,2.8,1,5.5,2.8,7.6c1-2.3,1.8-3.2,1.6-5.7c-0.2-2.9-2.2-3.4-2.7-5.7
		c-0.5-2.4,0.2-5,0-7.3c-0.4-5.1-1.5-11.1-4-15c0,0,0,0,0,0c0.3,0.2,7.7,2.3,9.1,2.1c3.3-0.5,6.4-3,6.9-3.4c0.5-0.3,1.8-1.7,2.1-1.8
		c0.3-0.1,1.1,4.7,1.3,6.3c0.7,5.1-0.3,6.2-1.4,10.7c-0.3,0.4-2.7,1.3-4.5,2.2c-1.4,0.1-2.2,1.4-2.5,2.4c0,0,0,0.1,0,0.1
		c0,0.1,0,0.1-0.1,0.2c-0.2,0.6-0.4,1.8-0.2,3.6c0.1,0.8,5.2,1.3,11.9,6.3c8.2,5.5,14.2,2.9,20,3.4c0.3,0-1.6-2.5-0.4-4.3
		C97.6,80.2,98.3,77.9,98.3,76z"/>
	<path fill="#ed872d" d="M35.1,38.7c-0.2,3.2,1.7,6.2,4.8,7.3c3.8,1.3,7.9-0.7,9.3-4.4c1.3-3.8-0.7-7.9-4.5-9.3
		c-1.8-0.6-3.7-0.5-5.3,0.2c-0.7-0.8-1.7-1.4-2.9-1.4c-2.2-0.1-4,1.6-4.1,3.8C32.4,36.7,33.5,38.2,35.1,38.7z"/>
</g>
<path fill="#ed872d" d="M51.2,79.7c-0.1-0.3-0.2-0.6-0.3-0.9c-0.3-1-0.6-2-0.8-3c-0.3-0.9-0.5-1.8-0.8-2.7c0-0.1-0.1-0.1-0.2-0.1
	c-1.2-0.2-1.7,0-2.7-0.1c-1.1,0-1.9-0.5-3.4-0.2c-0.1,0-0.2,0-0.2,0c0,0,0,0-0.1,0c0,0,0,0.1,0,0.1c0.3,2.1,0.7,4.2,1,6.4
	c0,0.1,0.1,0.1,0.2,0.2c1.9,0.3,3.8,0.5,5.8,0.4C50.2,79.8,50.7,79.8,51.2,79.7z"/>
<path fill="#ed872d" d="M35.3,82.3c0.5-0.1,1.7-0.5,2.5-1c1.9-0.5,2.7-0.5,4.3-1.5c0.1-0.1,0.2-0.1,0.1-0.2
	c-0.3-1.6-0.5-3.2-0.8-4.8c-0.1-0.5-0.2-1-0.2-1.4c0-0.1,0-0.1,0-0.2c-0.1,0-0.1,0.1-0.2,0.1c-1.5,0.9-3.2,1.5-5,2
	c-0.3,0.1-0.6,0.2-0.9,0.2c-0.1,0-0.2,0.1-0.1,0.2c0,1.3,0.1,2.5,0.1,3.8c0,1,0.1,1.9,0.1,2.9C35.2,82.2,35.2,82.2,35.3,82.3z"/>
</svg>
