<?xml version="1.0" encoding="utf-8"?>
<!-- Generator: Adobe Illustrator 17.1.0, SVG Export Plug-In . SVG Version: 6.00 Build 0)  -->
<!DOCTYPE svg PUBLIC "-//W3C//DTD SVG 1.1//EN" "http://www.w3.org/Graphics/SVG/1.1/DTD/svg11.dtd">
<svg version="1.1" id="Layer_1" xmlns="http://www.w3.org/2000/svg" xmlns:xlink="http://www.w3.org/1999/xlink" x="0px" y="0px"
	 width="117px" height="116.8px" viewBox="0 0 117 116.8" enable-background="new 0 0 117 116.8" xml:space="preserve">
<g>
	<path fill="#ed872d" d="M86.9,8.6C59.4-7.1,24.4,2.5,8.7,30C-7,57.6,2.6,92.6,30.1,108.2c27.5,15.7,62.5,6.1,78.2-21.5
		C124,59.3,114.4,24.3,86.9,8.6z M102.5,83.9c-13.8,24.3-44.8,32.8-69.1,19C9.1,89,0.7,58.1,14.5,33.8C28.3,9.5,59.3,1,83.6,14.8
		C107.9,28.7,116.4,59.6,102.5,83.9z"/>
	<g>
		<path fill="#ed872d" d="M66.7,92.4c10.2,0,14.2-10.3,17.8-13.9c3.5-3.5,6.8-2.9,7.3-3.1H24.5c0.5,0.2,3.7-0.5,7.3,3.1
			c3.5,3.6,7.6,13.9,17.8,13.9C59.7,92.4,56.5,92.4,66.7,92.4z"/>
		<path fill="#ed872d" d="M64.3,67.7c-0.3,0-0.5-0.1-0.7-0.3c-0.1-0.1-0.3-0.3-0.4-0.5c-2.2-2.5-8.9-10.2-0.8-23.6
			c3.3-5.6,4.4-11.3,3.2-17c-0.9-4.3-2.8-7-2.8-7.1c-0.3-0.4-0.2-1,0.2-1.3c0.4-0.3,1-0.2,1.3,0.2c0.1,0.1,2.1,3,3.1,7.7
			c0.9,4.3,1,11-3.4,18.4c-7.4,12.3-1.6,19,0.6,21.5c0.2,0.2,0.4,0.4,0.5,0.6c0.3,0.4,0.2,1-0.1,1.3C64.7,67.6,64.5,67.7,64.3,67.7z
			"/>
		<path fill="#ed872d" d="M73.9,71c-0.2,0-0.4-0.1-0.5-0.2c-1-0.7-10.2-11.9-4-21.3c5.9-8.8,0.3-17.5,0.3-17.6
			c-0.3-0.4-0.2-1,0.3-1.3c0.4-0.3,1-0.2,1.3,0.3c0.1,0.1,6.2,9.8-0.3,19.6c-5.3,8,2.5,17.9,3.6,18.8c0.4,0.3,0.5,0.8,0.2,1.3
			C74.4,70.8,74.1,71,73.9,71z"/>
		<path fill="#ed872d" d="M55.7,75c-0.2,0-0.4-0.1-0.5-0.2c-0.4-0.3-0.5-0.9-0.2-1.3c0.1-0.2,3.1-4.6-1.9-12.2
			c-5.4-8.3,3-15.8,3.1-15.9c0.4-0.3,0.9-0.3,1.3,0.1c0.3,0.4,0.3,0.9-0.1,1.3C57,47,50,53.4,54.6,60.3c5.7,8.8,2,14.1,1.8,14.3
			C56.2,74.9,56,75,55.7,75z"/>
		<path fill="#ed872d" d="M93.9,75.2c0,0.9-0.7,1.5-1.5,1.5H23.8c-0.9,0-1.5-0.7-1.5-1.5l0,0c0-0.9,0.7-1.5,1.5-1.5h68.6
			C93.2,73.6,93.9,74.3,93.9,75.2L93.9,75.2z"/>
	</g>
</g>
</svg>
