<?xml version="1.0" encoding="utf-8"?>
<!-- Generator: Adobe Illustrator 17.1.0, SVG Export Plug-In . SVG Version: 6.00 Build 0)  -->
<!DOCTYPE svg PUBLIC "-//W3C//DTD SVG 1.1//EN" "http://www.w3.org/Graphics/SVG/1.1/DTD/svg11.dtd">
<svg version="1.1" id="Layer_1" xmlns="http://www.w3.org/2000/svg" xmlns:xlink="http://www.w3.org/1999/xlink" x="0px" y="0px"
	 width="24px" height="24px" viewBox="0 0 512 512" enable-background="new 0 0 512 512" xml:space="preserve">
<path fill="#BFEE48" d="M0.9,370.3c6.6-18.7,11.5-38.2,20-56c17.8-37.4,45.8-64.7,85.9-80.9c2.6,6.1,4.8,11.4,7.5,17.7c-54.1,25-83.5,67-92.1,126.7
	c19.2,3.7,37.3,7.1,56.7,10.8c2.8,12.4,0.9,21.4-14.9,17.5c-21.4-5.3-45.9-1-63-19.7C0.9,380.9,0.9,375.6,0.9,370.3z"/>
<path fill="#BFEE48" d="M513.8,386.3c-20.2,18.9-46.7,16.2-71.1,19.6c-2.9,0.4-7.1-9.3-12.1-16.2c23.3-4.5,42-8.2,61.8-12
	c-8.7-59.5-37.6-101.8-92.1-126.4c2.7-6.6,4.8-11.8,7.5-18.3c50.9,22,81.7,59.9,98,110.6c2.8,8.8,5.3,17.8,8,26.6
	C513.8,375.6,513.8,380.9,513.8,386.3z"/>
<path fill="#BFEE48" d="M195.1,255.1c2.8,6.6,5,11.9,7.6,18.1c-54.3,25.1-83.4,67.1-92.2,127.8c28.2,4,54.2,8.9,80.5,11.1
	c64.7,5.5,129.1,3.3,193.3-7.7c19.3-3.3,20-12.1,16-27c-13.1-47.8-41.3-82.9-86.1-103.1c-0.3-2.5-1-3.9-0.6-4.9
	c1.6-4.3,3.6-8.4,5.4-12.6c2.7,0.5,4.9,0.4,6.6,1.2c59.5,28.3,89.8,77.4,98.4,140.8c0.8,6.1-9,18.4-15.7,19.8
	c-29.9,6.5-60.2,12.2-90.6,14.4c-67.4,4.9-134.6,2.8-201.1-10.9c-26.6-5.5-29.6-9.6-23.9-36.7C104.9,325.5,137.1,281.2,195.1,255.1z
	"/>
<path fill="#BFEE48" d="M256.6,271.4c-47.9-0.4-87.6-40.6-87.5-88.4c0.1-47.4,40.7-88.3,88-88.5c47.8-0.2,89,41.7,88.5,90
	C345.1,232.2,304.5,271.8,256.6,271.4z M256.9,251.1c39.4,0.2,68.4-28.2,68.5-67.4c0.2-38.9-29-68.7-67.7-69
	c-38.6-0.3-68.3,29.2-68.5,68.1C189,222.1,217.4,250.9,256.9,251.1z"/>
<path fill="#BFEE48" d="M175.7,231.4c0,6.3,0,11.3,0,15.9c-9.2,8.2-47.4-4.6-65.8-21.4c-34.3-31.4-39-80.5-11.2-117.4c27.9-37,75.6-46.3,117.2-21.5
	c-2.6,4.7-5.3,9.4-7.8,13.9c-61.1-16.9-104.5-5-106.3,66.9C100.8,203.7,126.9,224,175.7,231.4z"/>
<path fill="#BFEE48" d="M298.7,87.3c33.8-21.4,73.3-18.7,103,6.2C432,118.9,442,159.2,427,194.7c-15.1,35.6-50.2,57.2-88.2,53.4
	c-1.1-10.5-1.8-17.3,13.6-19.3c44.6-5.8,69.5-42.6,59.6-84.3c-9.8-40.9-49.9-61.2-92.5-46.6C307.6,102,307.6,102,298.7,87.3z"/>
</svg>
