<?xml version="1.0" encoding="utf-8"?>
<!-- Generator: Adobe Illustrator 17.1.0, SVG Export Plug-In . SVG Version: 6.00 Build 0)  -->
<!DOCTYPE svg PUBLIC "-//W3C//DTD SVG 1.1//EN" "http://www.w3.org/Graphics/SVG/1.1/DTD/svg11.dtd">
<svg version="1.1" id="Layer_1" xmlns="http://www.w3.org/2000/svg" xmlns:xlink="http://www.w3.org/1999/xlink" x="0px" y="0px"
	 width="18" height="18px" viewBox="0 0 512 512" enable-background="new 0 0 512 512" xml:space="preserve">
<path fill="#00B8B9"  d="M1,493c5-14.6,10.1-29.2,15-43.8c10.3-30.7,20.5-61.6,31-92.3c1.1-3.2,3.1-6.4,5.5-8.7C163.2,237.4,274,126.6,384.7,15.8
	C392.6,7.9,402.3,3.6,413,1c4.7,0,9.3,0,14,0c15.4,2.8,26.6,12,36.8,23.1c8.1,8.8,16.6,17.2,25.4,25.4C500.5,60,510.2,71.3,513,87
	c0,4.7,0,9.3,0,14c-3.1,16.1-13.5,27.2-24.6,38.2C381.3,246,274.5,352.9,167.5,459.7c-3.5,3.5-8.2,6.5-12.8,8
	c-43,14.6-86.1,28.9-129.2,43.3c-1.5,0.5-3,1.3-4.5,2c-2.7,0-5.3,0-8,0c-5.6-2.4-9.7-6.3-12-12C1,498.3,1,495.7,1,493z M340.8,105.2
	c-0.8,0.8-1.9,1.7-3,2.8c-86.1,86.1-172.3,172.3-258.4,258.5c-1.9,1.9-3.5,4.5-4.3,7.1c-10.4,30.7-20.7,61.5-30.9,92.3
	c-0.5,1.6-0.9,3.3-1.6,5.6c2.3-0.7,3.7-1,5.1-1.5c30.6-10.2,61.2-20.4,91.8-30.8c3.2-1.1,6.4-3,8.7-5.3
	c85.8-85.6,171.4-171.3,257.1-256.9c1.3-1.3,2.5-2.6,3.4-3.6C386.2,150.5,363.7,128.1,340.8,105.2z M432.8,149.2
	c14.3-14.3,29.1-28.7,43.4-43.5c7.1-7.3,6.3-17.4-1.2-25c-13.7-13.8-27.5-27.6-41.3-41.3c-8.7-8.6-18.6-8.7-27.2-0.1
	c-9,8.9-17.9,17.9-26.9,26.8c-5.2,5.1-10.4,10.2-15.1,14.8C387.7,104,410.2,126.5,432.8,149.2z"/>
</svg>
