<?xml version="1.0" encoding="utf-8"?>
<!-- Generator: Adobe Illustrator 17.1.0, SVG Export Plug-In . SVG Version: 6.00 Build 0)  -->
<!DOCTYPE svg PUBLIC "-//W3C//DTD SVG 1.1//EN" "http://www.w3.org/Graphics/SVG/1.1/DTD/svg11.dtd">
<svg version="1.1" id="Layer_1" xmlns="http://www.w3.org/2000/svg" xmlns:xlink="http://www.w3.org/1999/xlink" x="0px" y="0px"
	 width="117px" height="116.8px" viewBox="0 0 117 116.8" enable-background="new 0 0 117 116.8" xml:space="preserve">
<g>
	<path fill="#ed872d" d="M87.4,7.6C59.4-8.4,23.7,1.4,7.7,29.5c-16,28.1-6.2,63.8,21.9,79.8c28.1,16,63.8,6.2,79.8-21.9
		C125.3,59.3,115.5,23.6,87.4,7.6z M103.4,84c-14.1,24.8-45.7,33.5-70.5,19.3C8.1,89.2-0.5,57.6,13.6,32.8
		C27.7,8,59.3-0.6,84.1,13.5C108.9,27.6,117.5,59.2,103.4,84z"/>
	<path fill="#ed872d" d="M60.5,18.1c0,0-8.2,9.2-8.2,13.2s3.7,7.2,8.2,7.2c4.5,0,8.2-3.2,8.2-7.2S60.5,18.1,60.5,18.1z M64.8,34.8
		c-1.2,0-2.2-1.5-2.2-3.5c0-1.9,1-3.5,2.2-3.5c1.2,0,2.2,1.5,2.2,3.5C67,33.3,66,34.8,64.8,34.8z"/>
	<g>
		<path fill="#ed872d" d="M48.1,58.4c-0.2-2.4,1.7-2,2.3-1.5c0.6,0.5,3,2.4,5.9,2.9c3.4,0.2,7.3,2.9,8.5,3.7
			c2.3,1.4,10.8,4.6,16.3,6.5c-3.3-4-6.8-8.4-7.8-10.2c-0.6-1.2-2.7-5.6-5.5-7.4c-2.2-1.9-3.3-4.7-3.6-5.4c-0.3-0.7-1.7-2-2.8,0.2
			c-2.7,6.4,3.5,8.4,2.5,9.6c-1,1.2-15.8-11.9-18.6-13.1c-2.8-1.1-4.3,0.7-3.9,2.3c0.2,1.9,13,11.2,13.9,11.7c0.9,0.6,1.7,0.8,1,1.7
			C55.7,60.3,41,48.4,39,47c-2-1.4-4.5-0.2-3.8,1.5c-0.1,1,8.3,7.5,13.2,11.3C48.3,59.4,48.2,58.9,48.1,58.4z"/>
		<path fill="#ed872d" d="M34.8,61.8c-0.3,0.5-0.5,1.1-0.4,1.7c1.7,0.1,4.1,0.5,6.8,0.9c-0.6-0.4-1-0.8-1.3-1
			C38.4,62.5,36.3,60.3,34.8,61.8z"/>
		<path fill="#ed872d" d="M43.8,64.8c5.6,0.8,8.4,1.7,8.1,1.1c-0.4-0.6-0.6-0.4-2.1-1.7c-0.7-0.5-11.4-11.2-14.1-11.7
			c-2.7-0.5-3.6,3.6-2.5,4.4C33.7,57.2,39.4,61.6,43.8,64.8z"/>
	</g>
	<path fill="#ed872d" d="M87.9,94.7c0,0-19.7-1.2-23.1-1.1c-4.1,0.7-9.3-1.5-13.1-2.8c-3.8-1.2-18.9,0.4-18.7-5.5
		c0.5-2.1,3.4-1.2,5.2-1.2c1.7,0.2,12.2,1.6,12.2,0.9c0,0-0.1-1.5-2.4-1.3c-2.3,0.2-18-1.8-19-2c-1.3-0.1-2.6-4.1,0-5
		c2.6-0.9,16.7,1.5,17.2,1.7c1.6,0.3,3.1-0.5,1.7-0.9c-1.4-0.4-20.7-2.6-21.3-3.9c-1.4-1.1,0.2-3.4,2.6-3.2c2.4,0.2,21,3.2,21.2,2.2
		c0.2-1-0.7-0.9-1.7-0.9c-1.1-0.1-16.7-1.8-17.9-3.3c-1.2-1.2-0.8-3.5,2.2-3.9c3-0.4,22.4,3.6,22.6,2.1c0.2-1.5-6.1-0.2-6.9-7.1
		c-0.2-2.4,1.7-2,2.3-1.5c0.6,0.5,3,2.4,5.9,2.9c3.4,0.2,7.3,2.9,8.5,3.7c2.4,1.4,11.2,4.7,16.7,6.7C84.6,73.4,88,81.2,87.9,94.7z"
		/>
</g>
</svg>
