<?xml version="1.0" encoding="utf-8"?>
<!-- Generator: Adobe Illustrator 17.1.0, SVG Export Plug-In . SVG Version: 6.00 Build 0)  -->
<!DOCTYPE svg PUBLIC "-//W3C//DTD SVG 1.1//EN" "http://www.w3.org/Graphics/SVG/1.1/DTD/svg11.dtd">
<svg version="1.1" id="Layer_1" xmlns="http://www.w3.org/2000/svg" xmlns:xlink="http://www.w3.org/1999/xlink" x="0px" y="0px"
	 width="117px" height="116.8px" viewBox="0 0 117 116.8" enable-background="new 0 0 117 116.8" xml:space="preserve">
<g>
	<path fill="#ed872d" d="M59.1-0.1C26.7-0.4,0.3,25.6,0,57.9c-0.3,32.3,25.6,58.7,57.9,59c32.3,0.3,58.7-25.6,59-57.9
		C117.3,26.7,91.4,0.2,59.1-0.1z M58,110.1C29.5,109.8,6.6,86.5,6.8,57.9C7.1,29.4,30.4,6.5,59,6.7c28.5,0.3,51.5,23.6,51.2,52.2
		C109.9,87.4,86.6,110.4,58,110.1z"/>
	<g>
		<path fill="#ed872d" d="M46,35.7c0,0-3-0.1-2.9-8.2c-0.1-7.2,3.5-3.8,4-2.4c0,0,1.5,2.7,2.8,0.4c1.8-3.1,6.4-4.7,10.5-2.5
			c3.2,1.8,1.2,3.3,0.5,4.9c-0.7,1.6-1,5.6,0.5,3c1.3-2.2,2.7-3.8,3.7-1.5c1.2,2.8-1,4.5-2.3,5.2c-1.8,1.1-2.3,4-4,3.8
			C57.1,38.5,55,34.2,46,35.7z"/>
		<path fill="#ed872d" d="M46.4,72c0-11,8.9-20,20-20c0.6,0,1.2,0,1.8,0.1c-4.1-8.8-11.5-14.6-20-14.6c-12.9,0-23.3,13.5-23.3,30.1
			c0,1.8,0.2,3.5,0.4,5.2h-0.1c-1.8,0-3.2,1.4-3.2,3.2c0,1.8,1.4,3.2,3.2,3.2c0,0,13.1,1.4,23,1.4c0.1,0,0.1,0,0.2,0
			C47.2,78,46.4,75.1,46.4,72z"/>
	</g>
	<path fill="#ed872d" d="M66.8,54.8c-9.7,0-17.6,7.9-17.6,17.6C49.2,82.1,57,90,66.8,90c9.7,0,17.6-7.9,17.6-17.6
		C84.4,62.7,76.5,54.8,66.8,54.8z M66.8,87.5c-8.4,0-15.1-6.8-15.1-15.1c0-8.4,6.8-15.1,15.1-15.1c8.4,0,15.1,6.8,15.1,15.1
		C81.9,80.8,75.1,87.5,66.8,87.5z"/>
	<g>
		<circle fill="#ed872d" cx="67.5" cy="59.4" r="1.2"/>
		<circle fill="#ed872d" cx="72.4" cy="60.6" r="1.2"/>
		<circle fill="#ed872d" cx="76.6" cy="63.8" r="1.2"/>
		<circle fill="#ed872d" cx="79" cy="68" r="1.2"/>
		<circle fill="#ed872d" cx="79.7" cy="73.2" r="1.2"/>
		<circle fill="#ed872d" cx="78.5" cy="78" r="1.2"/>
		<circle fill="#ed872d" cx="75.4" cy="82.1" r="1.2"/>
		<circle fill="#ed872d" cx="71" cy="84.6" r="1.2"/>
		<circle fill="#ed872d" cx="65.9" cy="85.3" r="1.2"/>
		<circle fill="#ed872d" cx="61.1" cy="84.1" r="1.2"/>
		<circle fill="#ed872d" cx="56.9" cy="80.9" r="1.2"/>
		<circle fill="#ed872d" cx="54.5" cy="76.7" r="1.2"/>
		<circle fill="#ed872d" cx="53.8" cy="71.6" r="1.2"/>
		<circle fill="#ed872d" cx="55" cy="66.7" r="1.2"/>
		<circle fill="#ed872d" cx="58.1" cy="62.6" r="1.2"/>
		<circle fill="#ed872d" cx="62.4" cy="60.1" r="1.2"/>
	</g>
	<path fill="#ed872d" d="M76.9,71.6c-0.3-0.4-3.1,0.1-5.7,1.6c2.1-2.2,3-4.5,2.6-4.7c-0.3-0.2-1.5,0.3-2.9,1.2
		c0.3-1.6,0.2-2.8-0.1-2.9c-0.3-0.1-1.2,0.6-2.2,1.9c-0.4-1.9-1-3.1-1.4-3.1c-0.4,0-1,1.3-1.4,3.1c-1-1.3-1.9-2.1-2.2-2
		c-0.3,0.1-0.4,1.4-0.1,3.1c-1.5-1-2.9-1.5-3.1-1.3c-0.4,0.3,0.6,2.7,2.8,4.9c0.1,0.1,0.2,0.1,0.2,0.2c-0.2-0.1-0.4-0.2-0.5-0.3
		c-2.7-1.6-5.6-2-5.9-1.6c-0.3,0.4,1.2,2.5,3.9,4c1.7,1,2.8,1.5,4,2.1c1.3,0,2.9,0,4,0c1.2-0.6,2.3-1.2,4-2.1
		C75.6,74.1,77.2,72,76.9,71.6z"/>
</g>
</svg>
