<?xml version="1.0" encoding="utf-8"?>
<!-- Generator: Adobe Illustrator 19.2.1, SVG Export Plug-In . SVG Version: 6.00 Build 0)  -->
<svg version="1.1" id="Layer_1" xmlns="http://www.w3.org/2000/svg" xmlns:xlink="http://www.w3.org/1999/xlink" x="0px" y="0px"
	 width="451px" height="282.7px" viewBox="0 0 451 282.7" enable-background="new 0 0 451 282.7" xml:space="preserve">
<g>
	<path fill="#5B6770" d="M357.5,247.5c0,0.1,0,0.2,0,0.3l0.1-0.5L357.5,247.5z"/>
	<path fill="#5B6770" d="M357.4,247.8L357.4,247.8C357.4,247.8,357.4,247.8,357.4,247.8L357.4,247.8z"/>
</g>
<g>
	<path fill="#FFFFFF" d="M194.1,220c5.7,0,9.6-4.3,9.6-10c0-5.7-3.9-10-9.6-10c-5.7,0-9.6,4.3-9.6,10
		C184.5,215.7,188.4,220,194.1,220z M194.1,202.1c4.3,0,7.1,3.3,7.1,7.8c0,4.5-2.8,7.8-7.1,7.8c-4.3,0-7.1-3.4-7.1-7.8
		C187,205.5,189.7,202.1,194.1,202.1z"/>
	<polygon fill="#FFFFFF" points="207.6,200.3 204.8,200.3 212.6,219.6 215.6,219.6 223.3,200.3 220.6,200.3 214.1,217 	"/>
	<polygon fill="#FFFFFF" points="238.5,202.5 238.5,200.3 225.9,200.3 225.9,219.6 238.5,219.6 238.5,217.5 228.3,217.5 
		228.3,210.8 238.3,210.8 238.3,208.7 228.3,208.7 228.3,202.5 	"/>
	<path fill="#FFFFFF" d="M256.1,206.1c0-3.6-2.5-5.8-6.1-5.8h-7.7v19.3h2.4v-7.7h3.9l4.9,7.7h2.8l-5.2-7.9
		C253.7,211.5,256.1,209.6,256.1,206.1z M244.7,209.8v-7.4h5.1c2.3,0,3.9,1.5,3.9,3.7c0,2.2-1.6,3.7-3.9,3.7H244.7z"/>
	<path fill="#FFFFFF" d="M269.1,202.1c2.2,0,4.2,1.2,5.3,2.8l2-1.1c-1.5-2.2-3.9-3.8-7.3-3.8c-5.6,0-9.9,4-9.9,10s4.4,10,9.9,10
		c3.4,0,5.7-1.6,7.3-3.8l-2-1.1c-1.1,1.6-3.1,2.8-5.3,2.8c-4.2,0-7.4-3.3-7.4-7.8C261.6,205.4,264.9,202.1,269.1,202.1z"/>
	<path fill="#FFFFFF" d="M288.3,200c-5.7,0-9.6,4.3-9.6,10c0,5.7,3.9,10,9.6,10c5.7,0,9.6-4.3,9.6-10C297.9,204.3,294,200,288.3,200
		z M288.3,217.8c-4.3,0-7.1-3.4-7.1-7.8c0-4.5,2.7-7.8,7.1-7.8c4.3,0,7.1,3.3,7.1,7.8C295.4,214.5,292.6,217.8,288.3,217.8z"/>
	<polygon fill="#FFFFFF" points="311.1,215.2 305.1,200.3 301.6,200.3 301.6,219.6 304,219.6 304,203.4 310.6,219.6 311.6,219.6 
		318.1,203.4 318.1,219.6 320.5,219.6 320.5,200.3 317.1,200.3 	"/>
	<rect x="325" y="200.3" fill="#FFFFFF" width="2.4" height="19.3"/>
	<polygon fill="#FFFFFF" points="334.4,200.3 331.9,200.3 331.9,219.6 334.3,219.6 334.3,204.2 345.6,219.6 347.9,219.6 
		347.9,200.3 345.5,200.3 345.5,215.4 	"/>
	<path fill="#FFFFFF" d="M351.6,210c0,6,4.4,10,9.7,10c6,0,9.3-4.2,9.3-10.3h-10.5v2.1h7.9c-0.5,3.2-2.5,6-6.5,6
		c-4.2,0-7.4-3.3-7.4-7.8c0-4.6,3.2-7.8,7.4-7.8c2.3,0,4.4,1.1,5.6,2.7l1.9-1.2c-1.7-2.1-4-3.6-7.5-3.6
		C356.1,200,351.6,204,351.6,210z"/>
	<polygon fill="#FFFFFF" points="184.9,254.3 198.6,254.3 198.6,250.7 189,250.7 189,246.3 198.4,246.3 198.4,242.7 189,242.7 
		189,238.6 198.6,238.6 198.6,235 184.9,235 	"/>
	<polygon fill="#FFFFFF" points="218.9,235 213.9,235 209.5,241.6 205.1,235 200.2,235 206.8,244.4 199.8,254.3 204.7,254.3 
		209.5,247.3 214.4,254.3 219.3,254.3 212.3,244.4 	"/>
	<polygon fill="#FFFFFF" points="219.9,238.6 225.6,238.6 225.6,254.3 229.7,254.3 229.7,238.6 235.3,238.6 235.3,235 219.9,235 	
		"/>
	<path fill="#FFFFFF" d="M253.5,241.2c0-3.6-2.5-6.2-6.5-6.2h-9v19.3h4.1v-6.9h3l3.8,6.9h4.7l-4.4-7.3
		C251.3,246.5,253.5,244.6,253.5,241.2z M246.4,243.9h-4.3v-5.2h4.3c1.6,0,2.9,1,2.9,2.6C249.3,242.9,248,243.9,246.4,243.9z"/>
	<polygon fill="#FFFFFF" points="256.6,254.3 270.2,254.3 270.2,250.7 260.7,250.7 260.7,246.3 270,246.3 270,242.7 260.7,242.7 
		260.7,238.6 270.2,238.6 270.2,235 256.6,235 	"/>
	<polygon fill="#FFFFFF" points="283.9,247.1 279.2,235 273.4,235 273.4,254.3 277.5,254.3 277.5,240.4 283,254.3 284.8,254.3 
		290.2,240.4 290.2,254.3 294.3,254.3 294.3,235 288.5,235 	"/>
	<polygon fill="#FFFFFF" points="298.1,254.3 311.8,254.3 311.8,250.7 302.3,250.7 302.3,246.3 311.6,246.3 311.6,242.7 
		302.3,242.7 302.3,238.6 311.8,238.6 311.8,235 298.1,235 	"/>
	<path fill="#FFFFFF" d="M331.5,235h-9v19.3h4.1v-6.9h4.9c4.2,0,6.5-2.8,6.5-6.2C337.9,237.9,335.7,235,331.5,235z M330.9,243.8
		h-4.3v-5.2h4.3c1.6,0,2.9,1,2.9,2.6C333.7,242.8,332.5,243.8,330.9,243.8z"/>
	<path fill="#FFFFFF" d="M349.7,234.7c-5.8,0-10.1,4.2-10.1,10c0,5.8,4.2,10,10.1,10c5.8,0,10.1-4.2,10.1-10
		C359.7,238.9,355.5,234.7,349.7,234.7z M349.7,251c-3.6,0-5.9-2.7-5.9-6.3c0-3.6,2.3-6.3,5.9-6.3c3.6,0,5.8,2.7,5.8,6.3
		C355.5,248.3,353.2,251,349.7,251z"/>
	<polygon fill="#FFFFFF" points="370,249.8 364.7,235 360,235 367.5,254.3 372.6,254.3 380.1,235 375.4,235 	"/>
	<polygon fill="#FFFFFF" points="381.9,254.3 395.5,254.3 395.5,250.7 386,250.7 386,246.3 395.3,246.3 395.3,242.7 386,242.7 
		386,238.6 395.5,238.6 395.5,235 381.9,235 	"/>
	<path fill="#FFFFFF" d="M414.2,241.2c0-3.6-2.5-6.2-6.5-6.2h-9v19.3h4.1v-6.9h3l3.8,6.9h4.7L410,247
		C412.1,246.5,414.2,244.6,414.2,241.2z M407.2,243.9h-4.3v-5.2h4.3c1.6,0,2.9,1,2.9,2.6C410,242.9,408.8,243.9,407.2,243.9z"/>
	<polygon fill="#FFFFFF" points="416.1,238.6 421.8,238.6 421.8,254.3 425.9,254.3 425.9,238.6 431.5,238.6 431.5,235 416.1,235 	
		"/>
	<polygon fill="#FFFFFF" points="446.3,235 441.6,242.8 436.8,235 432.1,235 439.5,246.4 439.5,254.3 443.6,254.3 443.6,246.4 
		451,235 	"/>
	<path fill="#FFFFFF" d="M281.6,157.4c22.9-9.2,70.8-16.6,82.5-19.9c3.5-1,1.6-13.8-0.8-13.8c0.1-1.2-0.5-2.4-2-2.9
		c-0.9-0.3-1.7-0.5-2.6-0.7c0.1-0.4,0.1-0.8,0.1-1.2c0.1-0.8-0.1-1.7-0.6-2.4c-4-5.6-13-5.4-19.1-5.5c-4.1-0.1-8.1,0.1-12.1,0.2
		c-1.9,0-5.1-0.1-6.1-1.8c1-0.6,2.1-0.7,3.2-1c9.7-2.5,19.5-3.9,29-7.2c2.3-0.8,2.2-4.1,0.5-5.4c-4.5-3.3-12.9-1.1-17.9-0.4
		c-1.7,0.2-3.4,0.5-5.1,0.7c0.3-0.1,0.5-0.2,0.8-0.3c1.3-0.4,9.3-5.2,10.7-7.4c2.5-3.7-14.3-4.6-11.8-12.3c0.7-2,2.1-4.5,3.3-6.3
		c0.5-0.9,1.3-1.7,1.5-2.7c1-5.4-22.7-5.5-22.4-5.6c4.8-2.2-1.4-5.8-4.1-6.5c-5.2-1.4-10.2,1.1-15.5,0.7c-0.5,0-1.2-0.3-1.1-0.8
		c0-0.3,0.3-0.5,0.5-0.6c1-0.6,2-0.8,3.1-1.2c2.8-1,5.6-1.8,8.4-2.7c4.2-1.2-4.8-9.8-10.6-9.5c-19,1.1-270.9,51.3-278.6,55.6
		c-13.4,7.7-11.5,12.5-13.4,32.6c-6.5,69.9,14.1,73.4,22.5,77.8c9,4.7,17.4,1.7,25.8,0.5c8.7-1.2,11.3,13.8,29.5,8.2
		c10.2-3.1,8.3-2.7,15.7-5.1l0.3-0.1l0.4-0.1c5.1-0.9,19.7-6.7,21.1-7.5L277.5,159L281.6,157.4z M141.3,152.9
		c-1.6,14.2-9.9,18-13,19.6c-3.7,1.9-17.6,3.7-20.7-6.9c-0.1-0.3-0.6-2.9,0.1-2.8c1.7,0.2,2.1,2.8,8.3,3.7c3.7,0.5,7.6-0.5,10.3-3.8
		c3.4-4,4.8-11.4,3.2-16.1c-1.6-4.5-10.9-7.8-23.1,3.8c-0.8,9.5-3.3,37.7-7.2,50.9c-1.2,4-9.4,7-9.2,1.1c0-0.7,0.1-1.6,0.2-2.5
		c0.9-6,1.6-15.1,2.3-24.7c-1.1,1.1-2.3,2-3.8,2.8c-1.6,0.9-3.4,1.5-5.3,1.9c-1.9,0.4-3.9,0.4-6,0.1c-2-0.3-3.9-1.1-5.6-2.4
		c-1.8-1.3-3.3-3.1-4.7-5.4c-1.1-1.8-1.9-3.9-2.6-6.5c-5.6,13-17.7,24.7-27.7,22c-15.8-4.3-9.1-33.9-8.4-37.2
		c0.7-3.4,1.3-6.6,1.8-9.6c0.5-3,0.9-5.8,1.2-8.3c0.3-2.4,0.9-17.8-4.3-17.5c-1,0.1-3.3,0.7-6.3,3.3c-1,0.9-2.8,0.5-2.1-2.9
		c0.7-3.3,6.9-11.5,14.2-11.4c6.3,0.1,9.3,8.1,9.8,14.4c0.7,7.4-1,18.7-2.7,28.8c-1.4,8.4-2.6,15.5-1.9,19.9c1.5,9,7.9,9.6,13.3,1.6
		c3-4.4,8.4-13,10.8-23.8c0,0,0,0,0,0c0.2-14.2,3.2-26.4,4-28.9c1.1-3.4,2.3-6.2,3.5-8.3c1.2-2,2.4-3.2,3.6-3.4
		c1.5-0.3,2.6,0,3.5,0.8c0.9,0.9,1.5,2,1.8,3.4c0.3,1.6,0.5,3.5,0.2,5.5c-1.2,5.9-6.8,26.4-3.5,47.4c0.4,2.8,1.6,5.1,3.1,6.8
		c1.5,1.7,3.3,2.4,5.2,2c6.8-1.2,9.7-8,9.9-11.5c0.8-15.1,1.2-28,1.3-28.4c2.5-6.1,6.8-4.1,7.6-3.6c0.8,0.5,3.5,3.3,3.8,7.8
		c0.1,1.1,0,2.3,0.1,3.6l0,0.9l0.7-0.6c3-2.5,6.1-4.5,9.3-6.1c3.2-1.5,6.5-2.4,9.8-2.5C139.1,129.6,142.4,143,141.3,152.9z
		 M178,156.4c-0.6,1.4-1.5,2.7-2.6,4c-1.2,1.2-2.6,2.3-4.2,3.2c-1.6,0.9-3.4,1.5-5.3,1.9c-1.9,0.4-3.9,0.4-6,0.1
		c-2-0.3-3.9-1.1-5.6-2.4c-1.8-1.3-3.3-3.1-4.7-5.4c-1.4-2.3-2.5-5.4-3.2-9l-0.4-2c-3.5-20,1.8-41.7,2.8-45.1
		c1.1-3.4,2.3-6.2,3.5-8.3c1.2-2,2.4-3.2,3.6-3.4c1.5-0.3,2.6,0,3.5,0.8c0.9,0.9,1.5,2,1.8,3.4c0.3,1.6,0.5,3.5,0.2,5.5
		c-1.2,5.9-6.8,26.4-3.5,47.4c0.4,2.8,1.6,5.1,3.1,6.8c1.5,1.7,3.3,2.4,5.2,2c1.3-0.3,2.5-0.7,3.4-1.3c0.9-0.6,1.7-1.2,2.4-1.9
		c0.7-0.6,1.4-1.2,2-1.7c0.5-0.5,1.2-0.8,1.9-0.9c0.6-0.1,1.2,0.1,1.8,0.5c0.6,0.5,1,1.1,1.1,1.8C178.8,153.7,178.6,155.1,178,156.4
		z M241.2,96.4c0.8-3.1,1.9-6.1,1.6-8.6c-0.3-3.6-6.9-3.6-11.4,2.7c-6.9,9.6-8,29.1-8,29.1s1.7-0.3,11.2-2c5.3-0.9,6.2,3.9,6.2,4.3
		c0.2,0.9,0.6,5.7-2.9,6.3c-1.3,0.2-2.4,0.4-3.3,0.5c-0.9,0.1-9.7,1.7-10.6,1.9l-0.8,0.2c0,0-0.6,8.9,0.4,20.1l0,0
		c0.2,2.7-1.3,4.5-6.1,5.4c-4.7,0.8-5.7-1.8-5.7-2.5c-0.2-2.9-3.5-32.9,5.2-59.7c7.7-23.8,24.4-20.7,28.4-17.9
		c2.3,1.6,3.7,4.3,3.5,8.3C248.3,94.4,239.5,102.4,241.2,96.4z M267.6,146.5c-2-0.4-3.9-1.2-5.6-2.5c-1.7-1.3-3.3-3.2-4.6-5.5
		c-1.4-2.4-2.4-5.4-3-9.1l-0.3-2c-0.1-0.6-0.2-1.3-0.2-1.9l-0.1-0.7l0-1.5c-0.1,0.1-1.1,0.5-1.5,0.5l0,0l0,0
		c-0.5,0.2-1.2,0.4-1.9,0.6c-0.7,0.2-1.4,0.4-2.1,0.5c-1.2,0.2-2.1,0.1-2.7-0.2c-0.6-0.3-1-1-1.2-2.1c-0.2-1.3-0.1-2.6,0.3-4.1
		c0.4-1.4,1.1-2.3,2-2.9c0.5-0.3,4.3-1.3,6.8-1.6c0.1-4.6,0.6-9.2,1.4-13.5c0.8-4.3,1.7-8.2,2.9-11.6c1.1-3.4,2.4-6.1,3.7-8.3
		c1.3-2,2.5-3.1,3.6-3.3c1.5-0.3,2.6,0,3.5,0.9c0.9,0.9,1.5,2,1.7,3.5c0.3,1.6,0.3,3.5,0,5.5c-0.3,2-2.4,11.1-3,13.9
		c-0.9,3.9-1.7,10.1-1.7,10.1c4-1.2,14.5-2.4,15.9-2.4c1.3-0.1,2.6,0,3.7,0.3c1.1,0.3,2.4,1.9,1.8,2.1c-4.3,1.2-10.1,2.3-10.1,2.3
		s10.9,0.6,11.7,0.7c0.7,0.1,0.7,0.6-0.1,0.9c-0.8,0.2-21.3,4.6-22.9,5.2l-0.3,0.1l0,0.3c0,1.2,0.1,2.4,0.2,3.6
		c0.1,1.2,0.3,2.4,0.5,3.6c0.5,2.8,1.5,5.1,2.9,6.8c1.5,1.8,3.2,2.5,5.1,2.1c1.3-0.2,2.5-0.7,3.4-1.3c0.9-0.6,1.7-1.2,2.4-1.8
		c0.7-0.6,1.4-1.2,2-1.7c0.5-0.5,1.2-0.8,1.9-0.9c0.6-0.1,1.2,0.1,1.8,0.6c0.6,0.5,1,1.1,1.1,1.8c0.2,1.4,0.1,2.8-0.5,4.1
		c-0.6,1.4-1.5,2.7-2.7,3.9c-1.2,1.2-2.6,2.3-4.3,3.1c-1.7,0.9-3.5,1.5-5.4,1.8C271.6,146.9,269.5,146.9,267.6,146.5z"/>
</g>
<g>
	<path fill="#F15C27" d="M205.5,137l-11.2-18.1c-0.6-0.7-5.5-2.2-6.4-2.1c-0.9,0.2-1.7,0.8-2,1.7l-7.9,23.1
		c-0.3,0.9-0.2,1.9,0.4,2.6c0.6,0.7,1.5,1.1,2.5,0.9l5.6-0.9c0.1,0.3,0.2,0.7,0.2,1c0.8,3.4,1.4,6.9,3,10.1c0.5,0.9,0.9,1.9,1.8,2.4
		c0.6-0.1,1.2-0.2,1.8-0.2c0.5,0.1,1-0.2,1.4-0.6c0.4,0.1,0.1-0.4,0.3-0.6c1.5-0.7,1.8-2.1,1.7-4c0,0,0,0,0,0c0,0,0,0,0,0
		c-0.1-1.1-0.3-2.5-0.5-4.1c0.1-0.5,0.1-1-0.1-1.5c0.1-0.3,0-0.4-0.2-0.6c0-0.4-0.1-0.8-0.1-1.2c0,0,0.1,0,0.1,0
		c0-0.1-0.1-0.1-0.1-0.2c0-0.4-0.1-0.7-0.1-1.1c0.2-0.3,0-0.7-0.1-1l8.3-1.3c0.9-0.2,1.7-0.8,2-1.7
		C206.2,138.7,206.1,137.7,205.5,137z"/>
	<path fill="#F15C27" d="M186.2,112.5c0.1,0.1,0.2,0.2,0.3,0.2c0.1,0.1,0.2,0.1,0.2,0.2c0.3,0.2,0.5,0.4,0.8,0.5c1,0.5,2,0.7,3,0.7
		c1.1,0.1,2.2-0.1,3.2-0.4c2.3-0.8,3.4-2.8,3.5-4.9c0.4-1.7,0-3.5-1-5c-1.4-2.7-4.1-4.2-7.2-3.6c-0.5,0.1-0.9,0.2-1.3,0.4
		c-1.3,0.5-2.5,1.5-3.3,2.8c-1.8,3-1.4,6.6,1.3,8.8C185.9,112.3,186,112.4,186.2,112.5z"/>
</g>
</svg>
